<svg width="37" height="37" viewBox="0 0 37 37" fill="none" xmlns="http://www.w3.org/2000/svg">
<g id="arcticons:consorsbank-secureplus">
<path id="Vector" d="M9.01224 13.5347L27.4615 13.5347C29.2492 13.5347 30.6985 14.9839 30.6985 16.7717L30.6985 29.5929C30.6985 31.3807 29.2492 32.8299 27.4615 32.8299H9.01224C7.22449 32.8299 5.77523 31.3807 5.77523 29.5929L5.77523 16.7717C5.77523 14.9839 7.22449 13.5347 9.01224 13.5347Z" stroke="black" stroke-width="0.75" stroke-linecap="round" stroke-linejoin="round"/>
<path id="Vector_2" d="M26.2224 13.5343V11.5746C26.2224 9.45418 25.3801 7.42062 23.8807 5.92127C22.3814 4.42192 20.3478 3.57959 18.2274 3.57959C16.107 3.57959 14.0734 4.42192 12.5741 5.92127C11.0747 7.42062 10.2324 9.45418 10.2324 11.5746V13.5343M18.2364 26.1816L18.2364 20.1816" stroke="black" stroke-width="0.75" stroke-linecap="round" stroke-linejoin="round"/>
</g>
</svg>
