<svg width="37" height="37" viewBox="0 0 37 37" fill="none" xmlns="http://www.w3.org/2000/svg">
<g id="fluent:sport-hockey-20-regular">
<path id="Vector" d="M21.7862 32.4893C24.1982 32.9807 26.4734 31.8359 27.9854 30.1421L31.0724 26.6825C32.4188 25.1723 33.0182 23.0501 32.3864 21.0431C28.5884 8.97233 19.7324 4.70993 14.0462 3.85313C12.4154 3.60833 10.88 4.26173 9.74783 5.26613L6.48263 8.15693C4.29743 10.0919 3.20123 13.1519 4.21643 16.0247C8.02343 26.8013 15.8336 31.2797 21.7844 32.4893H21.7862ZM26.6426 28.9433C25.4222 30.3113 23.7536 31.0529 22.1444 30.7253C16.7444 29.6273 9.48863 25.5395 5.91563 15.4253C5.18663 13.3607 5.94083 11.0423 7.67783 9.50333L10.9412 6.61253C11.7836 5.86733 12.8024 5.48753 13.7798 5.63513C18.899 6.40553 27.1106 10.2737 30.6692 21.5831C31.0868 22.9097 30.7088 24.3857 29.7278 25.4837L26.6426 28.9433ZM25.5734 27.1937C25.8092 27.1574 26.0209 27.0289 26.162 26.8365C26.3031 26.6441 26.362 26.4035 26.3258 26.1677C25.5824 21.3509 23.129 17.4305 20.3498 14.5757C17.585 11.7317 14.4332 9.87953 12.1832 9.23873C12.0695 9.20635 11.9506 9.19667 11.8331 9.21026C11.7157 9.22386 11.6021 9.26045 11.4988 9.31795C11.2902 9.43407 11.1362 9.62831 11.0708 9.85793C11.0054 10.0876 11.0339 10.3338 11.15 10.5424C11.2662 10.751 11.4604 10.9049 11.69 10.9703C13.5746 11.5067 16.4636 13.1627 19.061 15.8303C21.644 18.4853 23.8742 22.0763 24.5474 26.4413C24.5838 26.6771 24.7123 26.8888 24.9047 27.0299C25.0971 27.171 25.3376 27.2299 25.5734 27.1937Z" fill="black"/>
</g>
</svg>
