<svg width="37" height="37" viewBox="0 0 37 37" fill="none" xmlns="http://www.w3.org/2000/svg">
<g id="fluent:desk-20-regular">
<path id="Vector" d="M7.43667 29.0361C6.48189 29.0361 5.56622 28.6568 4.89109 27.9817C4.21595 27.3066 3.83667 26.3909 3.83667 25.4361V11.0361C3.83667 10.0814 4.21595 9.16568 4.89109 8.49055C5.56622 7.81542 6.48189 7.43613 7.43667 7.43613H14.6367C15.5914 7.43613 16.5071 7.81542 17.1823 8.49055C17.8574 9.16568 18.2367 10.0814 18.2367 11.0361V21.8361H30.8367V8.33613C30.8367 8.09744 30.9315 7.86852 31.1003 7.69974C31.2691 7.53095 31.498 7.43613 31.7367 7.43613C31.9754 7.43613 32.2043 7.53095 32.3731 7.69974C32.5418 7.86852 32.6367 8.09744 32.6367 8.33613V25.4361C32.6367 26.3909 32.2574 27.3066 31.5823 27.9817C30.9071 28.6568 29.9914 29.0361 29.0367 29.0361H7.43667ZM5.63667 21.8361H16.4367V11.0361C16.4367 10.5587 16.247 10.1009 15.9095 9.76334C15.5719 9.42578 15.1141 9.23614 14.6367 9.23614H7.43667C6.95928 9.23614 6.50144 9.42578 6.16388 9.76334C5.82631 10.1009 5.63667 10.5587 5.63667 11.0361V21.8361ZM5.63667 23.6361V25.4361C5.63667 25.9135 5.82631 26.3714 6.16388 26.7089C6.50144 27.0465 6.95928 27.2361 7.43667 27.2361H29.0367C29.5141 27.2361 29.9719 27.0465 30.3095 26.7089C30.647 26.3714 30.8367 25.9135 30.8367 25.4361V23.6361H5.63667ZM9.23667 19.1361C8.99797 19.1361 8.76906 19.0413 8.60027 18.8725C8.43149 18.7037 8.33667 18.4748 8.33667 18.2361C8.33667 17.9974 8.43149 17.7685 8.60027 17.5997C8.76906 17.431 8.99797 17.3361 9.23667 17.3361H12.8367C13.0754 17.3361 13.3043 17.431 13.4731 17.5997C13.6418 17.7685 13.7367 17.9974 13.7367 18.2361C13.7367 18.4748 13.6418 18.7037 13.4731 18.8725C13.3043 19.0413 13.0754 19.1361 12.8367 19.1361H9.23667Z" fill="black"/>
</g>
</svg>
