<svg width="37" height="37" viewBox="0 0 37 37" fill="none" xmlns="http://www.w3.org/2000/svg">
<g id="fluent:conference-room-20-regular">
<path id="Vector" d="M13.7598 18.2049C13.7598 18.3822 13.7947 18.5578 13.8626 18.7216C13.9304 18.8853 14.0299 19.0342 14.1552 19.1595C14.2806 19.2849 14.4294 19.3843 14.5932 19.4522C14.757 19.52 14.9325 19.5549 15.1098 19.5549C15.2871 19.5549 15.4627 19.52 15.6264 19.4522C15.7902 19.3843 15.9391 19.2849 16.0644 19.1595C16.1898 19.0342 16.2892 18.8853 16.3571 18.7216C16.4249 18.5578 16.4598 18.3822 16.4598 18.2049C16.4598 17.8469 16.3176 17.5035 16.0644 17.2503C15.8112 16.9972 15.4679 16.8549 15.1098 16.8549C14.7518 16.8549 14.4084 16.9972 14.1552 17.2503C13.9021 17.5035 13.7598 17.8469 13.7598 18.2049ZM18.9474 3.83013C19.0785 3.80197 19.2143 3.80346 19.3448 3.8345C19.4752 3.86554 19.5971 3.92535 19.7015 4.00954C19.8059 4.09374 19.8901 4.20019 19.9481 4.32113C20.006 4.44206 20.0362 4.57442 20.0364 4.70853L20.0364 31.7085C20.0365 31.8428 20.0065 31.9753 19.9486 32.0965C19.8908 32.2177 19.8066 32.3244 19.7022 32.4087C19.5978 32.4931 19.4758 32.5531 19.3452 32.5842C19.2146 32.6154 19.0787 32.6169 18.9474 32.5887L6.34743 29.8869C6.14614 29.8433 5.96591 29.7319 5.83684 29.5714C5.70777 29.4108 5.63766 29.2109 5.63823 29.0049L5.63823 7.40493C5.63857 7.19932 5.70931 7.00004 5.83867 6.84022C5.96803 6.68041 6.1482 6.5697 6.34923 6.52653L18.9492 3.82833L18.9474 3.83013ZM18.2364 30.5943L18.2364 5.82093L7.43643 8.13393L7.43643 28.2795L18.2364 30.5943ZM21.8328 30.8013V29.0013H29.0364L29.0364 7.41033L21.8328 7.41033V5.61033L29.9364 5.61033C30.1751 5.61033 30.404 5.70515 30.5728 5.87393C30.7416 6.04271 30.8364 6.27163 30.8364 6.51033L30.8364 29.9013C30.8364 30.14 30.7416 30.3689 30.5728 30.5377C30.404 30.7065 30.1751 30.8013 29.9364 30.8013H21.8328Z" fill="black"/>
</g>
</svg>
