<svg width="37" height="37" viewBox="0 0 37 37" fill="none" xmlns="http://www.w3.org/2000/svg">
<g id="game-icons:tennis-racket">
<path id="Vector" d="M10.5302 2.3844C10.9943 2.3844 11.4583 2.42659 11.9154 2.4962C14.3411 2.8787 16.5911 4.12323 18.124 5.65745C20.149 7.68596 21.6115 10.6391 22.2302 13.5078C22.3427 13.9789 22.413 14.4641 22.4763 14.9422L24.8318 23.6891L23.7208 24.8L14.981 22.4446C14.5029 22.3813 14.0177 22.3039 13.5396 22.1985C10.6708 21.5797 7.71771 20.1172 5.69271 18.0922C4.15286 16.5524 2.90833 14.3024 2.52864 11.8766C2.16302 9.45081 2.69739 6.79299 4.77161 4.7251C6.44505 3.04252 8.50521 2.37385 10.5302 2.3844ZM10.5232 3.74073C8.81458 3.72104 7.15521 4.26737 5.72786 5.68909C3.97005 7.43987 3.54817 9.57034 3.87864 11.6656C4.20208 13.768 5.33411 15.8 6.65599 17.1219C8.44192 18.9078 11.2052 20.3 13.8279 20.8625C16.4435 21.4391 18.8341 21.1297 20.0013 19.9555C21.1615 18.7953 21.4708 16.4117 20.9013 13.7891C20.3318 11.1735 18.9466 8.40315 17.1536 6.62143C15.8388 5.30096 13.7997 4.17174 11.6974 3.84057C11.3107 3.7787 10.9099 3.74495 10.5232 3.74073ZM22.195 18.8446C21.9349 19.6391 21.5411 20.3563 20.9646 20.9188C20.395 21.4953 19.6849 21.9032 18.8904 22.1563L23.32 23.2813L22.195 18.8446ZM25.7318 24.7227L32.7208 31.7188L33.09 31.3602L34.054 32.3235L32.3404 34.025L31.3772 33.0688L31.7575 32.6891L24.7615 25.686L25.7318 24.7227ZM10.8958 27.8938C12.2669 27.8938 13.399 29.0188 13.399 30.3899C13.399 31.761 12.2669 32.886 10.8958 32.886C9.53177 32.886 8.39974 31.761 8.39974 30.3899C8.39974 29.0188 9.53177 27.8938 10.8958 27.8938Z" fill="black"/>
</g>
</svg>
