<svg width="37" height="37" viewBox="0 0 37 37" fill="none" xmlns="http://www.w3.org/2000/svg">
<g id="guidance:yoga">
<path id="Vector" d="M33.2366 21.9863L30.7556 21.1598C29.4299 20.7179 28.2254 19.9735 27.2374 18.9855C26.2493 17.9974 25.5049 16.7929 25.0631 15.4673L24.2366 12.9863C24.2366 12.9863 21.9866 11.4863 18.2366 11.4863C14.4866 11.4863 12.2366 12.9863 12.2366 12.9863L11.4101 15.4673C10.9682 16.7929 10.2238 17.9974 9.23578 18.9855C8.24773 19.9735 7.04319 20.7179 5.71757 21.1598L3.23657 21.9863M21.9866 15.9863V23.4863L28.3616 24.7613C28.6724 24.8259 28.9523 24.9939 29.1555 25.2379C29.3587 25.4819 29.4732 25.7875 29.4805 26.105C29.4878 26.4224 29.3874 26.733 29.1957 26.9861C29.0039 27.2392 28.7321 27.4199 28.4246 27.4988C26.4671 27.9968 22.1276 29.1413 18.2366 30.4838C14.2511 31.8578 10.7366 33.4388 10.7366 34.7363M14.4866 15.9863L14.4866 23.4863L8.11157 24.7613C7.8007 24.8259 7.52087 24.9939 7.31768 25.2379C7.11449 25.4819 6.99991 25.7875 6.9926 26.105C6.9853 26.4224 7.0857 26.733 7.27745 26.9861C7.4692 27.2392 7.741 27.4199 8.04857 27.4988C9.50957 27.8708 12.2981 28.6028 15.2366 29.5088M21.2366 31.6043C23.8316 32.6723 25.7366 33.7793 25.7366 34.7363M18.4616 8.48626C18.4616 8.48626 20.8616 6.98626 20.8616 5.11126C20.8616 4.41586 20.5853 3.74894 20.0936 3.25722C19.6019 2.7655 18.935 2.48926 18.2396 2.48926C17.5442 2.48926 16.8773 2.7655 16.3855 3.25722C15.8938 3.74894 15.6176 4.41586 15.6176 5.11126C15.6176 6.98626 18.0116 8.48626 18.0116 8.48626H18.4616Z" stroke="black" stroke-width="1.5"/>
</g>
</svg>
