<svg width="37" height="37" viewBox="0 0 37 37" fill="none" xmlns="http://www.w3.org/2000/svg">
<g id="guidance:atm" clip-path="url(#clip0_216_1040)">
<path id="Vector" d="M26.4866 26.4863C26.4866 20.4293 27.1526 14.3933 28.4696 8.48633M28.4696 8.48633H27.9866C26.992 8.48633 26.0382 8.09124 25.3349 7.38798C24.6317 6.68472 24.2366 5.73089 24.2366 4.73633V3.98633M28.4696 8.48633C28.6688 7.59384 28.8828 6.70471 29.1116 5.81933L29.4866 4.36133V3.98633H6.98657V4.36133L7.36307 5.81933C7.5913 6.70473 7.80483 7.59385 8.00357 8.48633M9.98657 26.4863C9.98657 20.4293 9.32057 14.3933 8.00357 8.48633M8.00357 8.48633H8.48657C9.48113 8.48633 10.435 8.09124 11.1382 7.38798C11.8415 6.68472 12.2366 5.73089 12.2366 4.73633V3.98633M6.23657 26.4863H30.2366M6.23657 20.4863H0.986572V32.4863H35.4866V20.4863H30.2366M18.2366 14.4863C17.4409 14.4863 16.6779 14.8024 16.1153 15.365C15.5526 15.9276 15.2366 16.6907 15.2366 17.4863C15.2366 18.282 15.5526 19.045 16.1153 19.6076C16.6779 20.1703 17.4409 20.4863 18.2366 20.4863C19.0322 20.4863 19.7953 20.1703 20.3579 19.6076C20.9205 19.045 21.2366 18.282 21.2366 17.4863C21.2366 16.6907 20.9205 15.9276 20.3579 15.365C19.7953 14.8024 19.0322 14.4863 18.2366 14.4863Z" stroke="black" stroke-width="1.5"/>
</g>
<defs>
<clipPath id="clip0_216_1040">
<rect width="36" height="36" fill="white" transform="matrix(1 0 0 -1 0.236572 36.2363)"/>
</clipPath>
</defs>
</svg>
