<svg width="37" height="37" viewBox="0 0 37 37" fill="none" xmlns="http://www.w3.org/2000/svg">
<g id="ph:basketball-thin">
<path id="Vector" d="M18.2366 32.2988C15.4553 32.2988 12.7364 31.4741 10.4239 29.9289C8.11131 28.3837 6.30888 26.1874 5.24452 23.6178C4.18017 21.0482 3.90168 18.2207 4.44429 15.4929C4.98689 12.765 6.32621 10.2593 8.29289 8.29264C10.2596 6.32596 12.7653 4.98664 15.4931 4.44404C18.221 3.90143 21.0485 4.17991 23.6181 5.24427C26.1877 6.30863 28.3839 8.11106 29.9291 10.4236C31.4743 12.7362 32.2991 15.455 32.2991 18.2363C32.295 21.9647 30.8121 25.5392 28.1757 28.1755C25.5394 30.8118 21.9649 32.2947 18.2366 32.2988ZM8.67408 26.9452C10.7212 24.7119 11.9119 21.826 12.035 18.7988H5.31173C5.44103 21.8249 6.63137 24.7089 8.67408 26.9452ZM18.7991 18.7988V31.1612C21.8515 31.0304 24.7581 29.8193 27.0003 27.744C24.7434 25.2975 23.4352 22.125 23.3117 18.7988H18.7991ZM17.6741 18.7988H13.1614C13.038 22.125 11.7297 25.2975 9.47283 27.744C11.715 29.8193 14.6217 31.0304 17.6741 31.1612V18.7988ZM12.035 17.6738C11.9119 14.6467 10.7212 11.7608 8.67408 9.52742C6.63137 11.7638 5.44103 14.6478 5.31173 17.6738H12.035ZM13.16 17.6738H17.6741V5.31148C14.6217 5.44224 11.715 6.65335 9.47283 8.72867C11.7297 11.1751 13.038 14.3476 13.1614 17.6738H13.16ZM18.7991 17.6738H23.3117C23.4352 14.3476 24.7434 11.1751 27.0003 8.72867C24.7581 6.65335 21.8515 5.44224 18.7991 5.31148V17.6738ZM24.4381 17.6738H31.1614C31.0321 14.6478 29.8418 11.7638 27.7991 9.52742C25.7519 11.7608 24.5613 14.6467 24.4381 17.6738ZM24.4381 18.7988C24.5613 21.826 25.7519 24.7119 27.7991 26.9452C29.8418 24.7089 31.0321 21.8249 31.1614 18.7988H24.4381Z" fill="black"/>
</g>
</svg>
