<svg width="37" height="37" viewBox="0 0 37 37" fill="none" xmlns="http://www.w3.org/2000/svg">
<g id="ph:car-thin">
<path id="Vector" d="M2.48657 16.5171H4.37095L8.42517 7.39475C8.55799 7.09562 8.77495 6.84156 9.0496 6.66354C9.32425 6.48552 9.64474 6.39121 9.97204 6.3921L26.5053 6.3921C26.8326 6.39121 27.1531 6.48552 27.4278 6.66354C27.7024 6.84156 27.9194 7.09562 28.0522 7.39475L32.1022 16.5171H33.9866C34.1358 16.5171 34.2788 16.5764 34.3843 16.6818C34.4898 16.7873 34.5491 16.9304 34.5491 17.0796C34.5491 17.2288 34.4898 17.3719 34.3843 17.4773C34.2788 17.5828 34.1358 17.6421 33.9866 17.6421H32.2991V29.4546C32.2991 29.9021 32.1213 30.3314 31.8048 30.6478C31.4883 30.9643 31.0591 31.1421 30.6116 31.1421H27.2366C26.789 31.1421 26.3598 30.9643 26.0433 30.6478C25.7269 30.3314 25.5491 29.9021 25.5491 29.4546L25.5491 26.6421L10.9241 26.6421V29.4546C10.9241 29.9021 10.7463 30.3314 10.4298 30.6478C10.1133 30.9643 9.68413 31.1421 9.23657 31.1421H5.86157C5.41402 31.1421 4.9848 30.9643 4.66833 30.6478C4.35186 30.3314 4.17407 29.9021 4.17407 29.4546L4.17407 17.6421H2.48657C2.33739 17.6421 2.19431 17.5828 2.08883 17.4773C1.98333 17.3719 1.92407 17.2288 1.92407 17.0796C1.92407 16.9304 1.98333 16.7873 2.08883 16.6818C2.19431 16.5764 2.33739 16.5171 2.48657 16.5171ZM27.02 7.85178C26.9759 7.75213 26.9037 7.66745 26.8124 7.60803C26.721 7.54861 26.6143 7.51702 26.5053 7.5171L9.96782 7.5171C9.85883 7.51702 9.75216 7.54861 9.66079 7.60803C9.56942 7.66745 9.49728 7.75213 9.45313 7.85178L5.60282 16.5171L30.8703 16.5171L27.02 7.85178ZM26.6741 29.4546C26.6741 29.6038 26.7333 29.7469 26.8388 29.8523C26.9443 29.9578 27.0874 30.0171 27.2366 30.0171H30.6116C30.7608 30.0171 30.9038 29.9578 31.0093 29.8523C31.1148 29.7469 31.1741 29.6038 31.1741 29.4546V26.6421H26.6741V29.4546ZM5.86157 30.0171H9.23657C9.38576 30.0171 9.52883 29.9578 9.63432 29.8523C9.73981 29.7469 9.79907 29.6038 9.79907 29.4546V26.6421H5.29907V29.4546C5.29907 29.6038 5.35834 29.7469 5.46383 29.8523C5.56931 29.9578 5.71239 30.0171 5.86157 30.0171ZM5.29907 25.5171L31.1741 25.5171L31.1741 17.6421L5.29907 17.6421L5.29907 25.5171ZM27.7991 21.5796C27.7991 21.4304 27.7398 21.2873 27.6343 21.1818C27.5288 21.0764 27.3858 21.0171 27.2366 21.0171H24.9866C24.8374 21.0171 24.6943 21.0764 24.5888 21.1818C24.4833 21.2873 24.4241 21.4304 24.4241 21.5796C24.4241 21.7288 24.4833 21.8719 24.5888 21.9773C24.6943 22.0828 24.8374 22.1421 24.9866 22.1421H27.2366C27.3858 22.1421 27.5288 22.0828 27.6343 21.9773C27.7398 21.8719 27.7991 21.7288 27.7991 21.5796ZM12.0491 21.5796C12.0491 21.4304 11.9898 21.2873 11.8843 21.1818C11.7788 21.0764 11.6358 21.0171 11.4866 21.0171H9.23657C9.08739 21.0171 8.94431 21.0764 8.83883 21.1818C8.73334 21.2873 8.67407 21.4304 8.67407 21.5796C8.67407 21.7288 8.73334 21.8719 8.83883 21.9773C8.94431 22.0828 9.08739 22.1421 9.23657 22.1421H11.4866C11.6358 22.1421 11.7788 22.0828 11.8843 21.9773C11.9898 21.8719 12.0491 21.7288 12.0491 21.5796Z" fill="black"/>
</g>
</svg>
