<svg width="37" height="37" viewBox="0 0 37 37" fill="none" xmlns="http://www.w3.org/2000/svg">
<g id="ph:game-controller-thin">
<path id="Vector" d="M11.4865 15.4238L14.8615 15.4238C15.0107 15.4238 15.1537 15.3646 15.2592 15.2591C15.3647 15.1536 15.424 15.0105 15.424 14.8613C15.424 14.7121 15.3647 14.5691 15.2592 14.4636C15.1537 14.3581 15.0107 14.2988 14.8615 14.2988H11.4865C11.3373 14.2988 11.1942 14.3581 11.0887 14.4636C10.9832 14.5691 10.924 14.7121 10.924 14.8613C10.924 15.0105 10.9832 15.1536 11.0887 15.2591C11.1942 15.3646 11.3373 15.4238 11.4865 15.4238ZM21.6115 14.2988H23.299V12.6113C23.299 12.4621 23.3582 12.3191 23.4637 12.2136C23.5692 12.1081 23.7123 12.0488 23.8615 12.0488C24.0107 12.0488 24.1537 12.1081 24.2592 12.2136C24.3647 12.3191 24.424 12.4621 24.424 12.6113V14.2988H26.1115C26.2607 14.2988 26.4037 14.3581 26.5092 14.4636C26.6147 14.5691 26.674 14.7121 26.674 14.8613C26.674 15.0105 26.6147 15.1536 26.5092 15.2591C26.4037 15.3646 26.2607 15.4238 26.1115 15.4238H24.424V17.1113C24.424 17.2605 24.3647 17.4036 24.2592 17.5091C24.1537 17.6146 24.0107 17.6738 23.8615 17.6738C23.7123 17.6738 23.5692 17.6146 23.4637 17.5091C23.3582 17.4036 23.299 17.2605 23.299 17.1113V15.4238H21.6115C21.4623 15.4238 21.3192 15.3646 21.2137 15.2591C21.1082 15.1536 21.049 15.0105 21.049 14.8613C21.049 14.7121 21.1082 14.5691 21.2137 14.4636C21.3192 14.3581 21.4623 14.2988 21.6115 14.2988ZM2.7382 28.1307C3.11514 28.6689 3.60538 29.1181 4.17446 29.4466C4.74355 29.7751 5.37767 29.975 6.03227 30.0322C6.68687 30.0895 7.34606 30.0026 7.96352 29.7779C8.58097 29.5531 9.14171 29.1958 9.60633 28.7312L9.63024 28.7059L15.3832 22.1738H21.0884L26.8413 28.7045L26.8666 28.7312C27.7114 29.574 28.8557 30.0478 30.049 30.0488C30.706 30.0486 31.3549 29.9044 31.9503 29.6266C32.5456 29.3487 33.0729 28.9439 33.4951 28.4405C33.9172 27.9371 34.2241 27.3474 34.394 26.7127C34.5639 26.0781 34.5928 25.4139 34.4787 24.767L32.1766 12.9221C31.8571 11.102 30.9063 9.45274 29.4912 8.26425C28.0761 7.07577 26.2874 6.42411 24.4395 6.42383L12.049 6.42383C10.2028 6.42635 8.41607 7.0766 7.00012 8.26127C5.58418 9.44593 4.62882 11.0899 4.30055 12.9066C4.29973 12.9113 4.29973 12.9161 4.30055 12.9207L1.99852 24.7557C1.89228 25.3392 1.90296 25.938 2.02993 26.5174C2.15691 27.0967 2.39766 27.6451 2.7382 28.1307ZM12.049 21.0488C11.1626 21.0488 10.2848 20.8742 9.46587 20.535C8.64692 20.1958 7.90281 19.6986 7.27601 19.0718C6.64922 18.445 6.15202 17.7009 5.8128 16.8819C5.47358 16.063 5.29899 15.1853 5.29899 14.2988C5.29899 13.4124 5.47358 12.5347 5.8128 11.7157C6.15202 10.8968 6.64922 10.1527 7.27601 9.52586C7.90281 8.89906 8.64692 8.40186 9.46587 8.06264C10.2848 7.72342 11.1626 7.54883 12.049 7.54883L24.438 7.54883C26.0232 7.54974 27.5572 8.10964 28.7702 9.13002C29.9832 10.1504 30.7976 11.5659 31.0699 13.1274L33.3734 24.9723C33.5258 25.8525 33.323 26.7572 32.8095 27.4881C32.296 28.2191 31.5137 28.7167 30.634 28.8718C30.1036 28.9643 29.5588 28.9285 29.0451 28.7676C28.5314 28.6066 28.0636 28.3251 27.6809 27.9465L21.7746 21.2401C21.7219 21.1801 21.657 21.132 21.5843 21.099C21.5115 21.066 21.4326 21.0489 21.3527 21.0488L12.049 21.0488ZM3.10102 24.9624L4.64789 16.9946C5.20264 18.5119 6.20994 19.8223 7.53359 20.7486C8.85725 21.6749 10.4334 22.1724 12.049 22.1738L13.8771 22.1738L8.79211 27.9479C8.28301 28.452 7.62672 28.7809 6.91822 28.8872C6.20973 28.9935 5.48579 28.8716 4.85119 28.5391C4.2166 28.2066 3.70427 27.6808 3.38836 27.0378C3.07245 26.3948 2.96935 25.6679 3.09399 24.9624H3.10102Z" fill="black"/>
</g>
</svg>
