<svg width="37" height="37" viewBox="0 0 37 37" fill="none" xmlns="http://www.w3.org/2000/svg">
<g id="ph:person-simple-walk-thin">
<path id="Vector" d="M14.8616 10.8921C14.0829 10.8921 13.3216 10.6612 12.6741 10.2285C12.0266 9.79585 11.5219 9.18089 11.2239 8.46141C10.9258 7.74192 10.8479 6.95022 10.9998 6.18642C11.1517 5.42262 11.5267 4.72103 12.0774 4.17036C12.6281 3.61969 13.3297 3.24468 14.0935 3.09275C14.8573 2.94082 15.649 3.0188 16.3684 3.31682C17.0879 3.61484 17.7029 4.11952 18.1355 4.76703C18.5682 5.41455 18.7991 6.17583 18.7991 6.95459C18.7991 7.99888 18.3843 9.0004 17.6459 9.73882C16.9074 10.4772 15.9059 10.8921 14.8616 10.8921ZM14.8616 4.14209C14.3054 4.14209 13.7616 4.30704 13.2991 4.61608C12.8366 4.92512 12.4761 5.36438 12.2632 5.87829C12.0504 6.39221 11.9947 6.95771 12.1032 7.50328C12.2117 8.04885 12.4796 8.54999 12.8729 8.94333C13.2662 9.33666 13.7674 9.60453 14.3129 9.71305C14.8585 9.82157 15.424 9.76587 15.9379 9.553C16.4518 9.34013 16.8911 8.97965 17.2001 8.51713C17.5092 8.05462 17.6741 7.51085 17.6741 6.95459C17.6741 6.20867 17.3778 5.4933 16.8504 4.96585C16.3229 4.43841 15.6076 4.14209 14.8616 4.14209ZM6.42413 20.4546C6.42413 20.6038 6.48339 20.7469 6.58888 20.8523C6.69437 20.9578 6.83745 21.0171 6.98663 21.0171C11.7187 21.0171 14.0066 18.7066 16.026 16.6676C16.521 16.1655 16.9907 15.693 17.4801 15.2613C17.5729 15.1812 17.6685 15.108 17.7613 15.0377L20.1323 20.4897L14.5298 24.4905C14.4569 24.5437 14.398 24.6137 14.3578 24.6944C14.3177 24.7752 14.2976 24.8644 14.2991 24.9546V32.8296C14.2991 32.9788 14.3584 33.1219 14.4639 33.2273C14.5694 33.3328 14.7124 33.3921 14.8616 33.3921C15.0108 33.3921 15.1539 33.3328 15.2594 33.2273C15.3649 33.1219 15.4241 32.9788 15.4241 32.8296V25.2443L20.5949 21.5515L25.5955 33.0532C25.625 33.121 25.6675 33.1823 25.7207 33.2336C25.7738 33.285 25.8365 33.3253 25.9053 33.3524C25.9741 33.3795 26.0475 33.3928 26.1214 33.3915C26.1952 33.3903 26.2682 33.3744 26.3359 33.345C26.4037 33.3155 26.465 33.273 26.5164 33.2199C26.5677 33.1667 26.6081 33.104 26.6352 33.0352C26.6623 32.9665 26.6756 32.8931 26.6743 32.8192C26.673 32.7453 26.6572 32.6724 26.6277 32.6046L18.7626 14.5174C22.9391 13.0338 29.0282 18.6855 29.1013 18.7488C29.1555 18.7994 29.2192 18.8388 29.2886 18.8648C29.358 18.8909 29.4319 18.9029 29.506 18.9004C29.5801 18.8978 29.653 18.8807 29.7205 18.85C29.788 18.8193 29.8488 18.7756 29.8994 18.7214C29.95 18.6672 29.9894 18.6036 30.0154 18.5341C30.0414 18.4647 30.0535 18.3908 30.0509 18.3167C30.0484 18.2426 30.0313 18.1697 30.0006 18.1022C29.9698 18.0347 29.9261 17.9739 29.8719 17.9233C28.4659 16.6501 26.916 15.5453 25.2538 14.6313C21.7171 12.7272 18.7752 12.6541 16.7432 14.4176C16.2215 14.8718 15.7377 15.3597 15.2259 15.8758C13.2712 17.8446 11.249 19.8921 6.98663 19.8921C6.83745 19.8921 6.69437 19.9514 6.58888 20.0568C6.48339 20.1623 6.42413 20.3054 6.42413 20.4546Z" fill="black"/>
</g>
</svg>
