<svg width="37" height="37" viewBox="0 0 37 37" fill="none" xmlns="http://www.w3.org/2000/svg">
<g id="ph:user-thin">
<path id="Vector" d="M4.2499 30.3301C6.57303 26.3138 10.2968 23.5716 14.6112 22.583C12.561 21.7431 10.8662 20.2173 9.81617 18.2665C8.76614 16.3156 8.4261 14.0607 8.85413 11.8869C9.28216 9.71315 10.4517 7.75546 12.163 6.34831C13.8742 4.94117 16.021 4.17187 18.2365 4.17187C20.452 4.17187 22.5987 4.94117 24.31 6.34831C26.0212 7.75546 27.1908 9.71315 27.6188 11.8869C28.0468 14.0607 27.7068 16.3156 26.6568 18.2665C25.6067 20.2173 23.9119 21.7431 21.8618 22.583C26.1705 23.5674 29.8999 26.3138 32.223 30.3301C32.2903 30.4586 32.3053 30.6082 32.2648 30.7475C32.2244 30.8868 32.1317 31.0052 32.0061 31.0778C31.8805 31.1504 31.7317 31.1716 31.5908 31.1371C31.4499 31.1026 31.3277 31.015 31.2499 30.8926C28.5021 26.138 23.6337 23.2988 18.2365 23.2988C12.8393 23.2988 7.97084 26.138 5.22303 30.8926C5.17371 30.978 5.10279 31.0489 5.01739 31.0983C4.93199 31.1477 4.83511 31.1737 4.73647 31.1738C4.63762 31.1741 4.54049 31.1479 4.45522 31.0979C4.32628 31.0232 4.23223 30.9004 4.19374 30.7564C4.15525 30.6125 4.17545 30.4591 4.2499 30.3301ZM26.674 13.7363C26.674 12.0675 26.1791 10.4362 25.252 9.04868C24.3249 7.66114 23.0071 6.57968 21.4654 5.94107C19.9236 5.30245 18.2271 5.13536 16.5904 5.46093C14.9537 5.78649 13.4503 6.59008 12.2703 7.77009C11.0903 8.95009 10.2867 10.4535 9.96109 12.0902C9.63553 13.7269 9.80262 15.4234 10.4412 16.9652C11.0798 18.5069 12.1613 19.8247 13.5488 20.7518C14.9364 21.679 16.5677 22.1738 18.2365 22.1738C20.4734 22.1712 22.618 21.2814 24.1998 19.6996C25.7816 18.1179 26.6714 15.9733 26.674 13.7363Z" fill="black"/>
</g>
</svg>
