<svg width="49" height="49" viewBox="0 0 49 49" fill="none" xmlns="http://www.w3.org/2000/svg">
<g id="icon-park-outline:connection">
<g id="Group">
<path id="Vector" d="M39.2363 14.2364L44.2363 9.23642L39.2363 4.23642" stroke="black" stroke-width="4" stroke-linecap="round" stroke-linejoin="round"/>
<path id="Vector_2" d="M8.23633 36.2364C9.29719 36.2364 10.3146 36.6578 11.0648 37.408C11.8149 38.1581 12.2363 39.1756 12.2363 40.2364C12.2363 41.2973 11.8149 42.3147 11.0648 43.0648C10.3146 43.815 9.29719 44.2364 8.23633 44.2364C7.17546 44.2364 6.15805 43.815 5.4079 43.0648C4.65776 42.3147 4.23633 41.2973 4.23633 40.2364C4.23633 39.1756 4.65776 38.1581 5.4079 37.408C6.15805 36.6578 7.17546 36.2364 8.23633 36.2364Z" stroke="black" stroke-width="4" stroke-linejoin="round"/>
<path id="Vector_3" d="M12.2363 40.2364H20.2363C21.2972 40.2364 22.3146 39.815 23.0648 39.0648C23.8149 38.3147 24.2363 37.2973 24.2363 36.2364V13.2364C24.2363 12.1756 24.6578 11.1581 25.4079 10.408C26.158 9.65785 27.1755 9.23642 28.2363 9.23642H44.2363" stroke="black" stroke-width="4" stroke-linecap="round" stroke-linejoin="round"/>
</g>
</g>
</svg>
