<svg width="49" height="49" viewBox="0 0 49 49" fill="none" xmlns="http://www.w3.org/2000/svg">
<g id="la:business-time" clip-path="url(#clip0_216_810)">
<path id="Vector" d="M21.1824 43.7364C20.4024 43.7364 19.5924 43.4664 19.0224 42.8964C18.4524 42.3264 18.1824 41.5164 18.1824 40.7364V39.2364H4.68237V9.23642H21.4824C21.2874 10.1964 21.1824 11.2014 21.1824 12.2364H7.68237V22.0764C8.56737 21.5664 9.58737 21.2364 10.6824 21.2364H24.1974C25.0374 22.3764 26.0574 23.3964 27.1974 24.2364H10.6824C8.89737 24.2364 7.68237 25.4514 7.68237 27.2364V36.2364H40.6824V27.2364C40.6824 26.9964 40.6674 26.7714 40.6224 26.5614C41.7024 26.2314 42.7224 25.7814 43.6824 25.2264V39.2364H30.1824V40.7364C30.1824 41.5164 29.9124 42.3264 29.3424 42.8964C28.7724 43.4664 27.9624 43.7364 27.1824 43.7364H21.1824ZM21.1824 40.7364H27.1824V39.2364H21.1824V40.7364ZM13.6824 30.2364V25.7364H16.6824V30.2364H13.6824ZM31.6824 30.2364V26.5464C32.6592 26.8517 33.6642 27.0577 34.6824 27.1614V30.2364H31.6824ZM36.1824 24.2364C29.5674 24.2364 24.1824 18.8514 24.1824 12.2364C24.1824 5.62142 29.5674 0.23642 36.1824 0.23642C42.7974 0.23642 48.1824 5.62142 48.1824 12.2364C48.1824 18.8514 42.7974 24.2364 36.1824 24.2364ZM36.1824 21.2364C41.1624 21.2364 45.1824 17.2164 45.1824 12.2364C45.1824 7.25642 41.1624 3.23642 36.1824 3.23642C31.2024 3.23642 27.1824 7.25642 27.1824 12.2364C27.1824 17.2164 31.2024 21.2364 36.1824 21.2364ZM34.6824 19.7364V10.7364H42.1824V13.7364H37.6824V19.7364H34.6824Z" fill="black"/>
</g>
<defs>
<clipPath id="clip0_216_810">
<rect width="48" height="48" fill="white" transform="matrix(1 0 0 -1 0.182373 48.2364)"/>
</clipPath>
</defs>
</svg>
