<svg width="49" height="49" viewBox="0 0 49 49" fill="none" xmlns="http://www.w3.org/2000/svg">
<g id="medical-icon:i-health-education" clip-path="url(#clip0_216_817)">
<path id="Vector" d="M40.5632 36.7509C40.9725 36.7573 41.3791 36.6821 41.7592 36.5298C42.1392 36.3775 42.4852 36.1511 42.7769 35.8638C43.0687 35.5765 43.3003 35.2341 43.4584 34.8564C43.6165 34.4787 43.6979 34.0734 43.6979 33.6639C43.6978 33.2545 43.6163 32.8491 43.4581 32.4715C43.2999 32.0939 43.0682 31.7515 42.7764 31.4642C42.4846 31.177 42.1386 30.9507 41.7585 30.7985C41.3784 30.6463 40.9718 30.5712 40.5624 30.5777C39.7521 30.5904 38.9793 30.9212 38.4108 31.4988C37.8424 32.0763 37.5238 32.8543 37.5239 33.6647C37.524 34.4751 37.8428 35.2529 38.4114 35.8303C38.98 36.4077 39.7529 36.7384 40.5632 36.7509ZM46.7792 47.9454V41.8974C46.7792 39.7164 44.9874 37.9442 42.8042 37.9442H38.5419C36.3587 37.9442 34.4087 39.7164 34.4087 41.8974V47.9454H46.7799H46.7792ZM8.5629 36.4892C7.74437 36.4884 6.9596 36.1628 6.38094 35.5838C5.80229 35.0049 5.47705 34.22 5.47665 33.4014C5.46759 32.9904 5.54072 32.5817 5.69175 32.1993C5.84278 31.817 6.06866 31.4686 6.35614 31.1747C6.64362 30.8808 6.98691 30.6473 7.36586 30.4879C7.74481 30.3285 8.15179 30.2464 8.5629 30.2464C8.97402 30.2464 9.381 30.3285 9.75995 30.4879C10.1389 30.6473 10.4822 30.8808 10.7697 31.1747C11.0572 31.4686 11.283 31.817 11.4341 32.1993C11.5851 32.5817 11.6582 32.9904 11.6492 33.4014C11.649 34.22 11.3238 35.0051 10.7451 35.584C10.1664 36.163 9.38151 36.4886 8.5629 36.4892ZM2.34991 47.9454V41.8974C2.34991 39.7164 4.14165 37.9442 6.3264 37.9442H10.5842C12.7712 37.9442 14.7182 39.7164 14.7182 41.8974V47.9454H2.34991ZM24.5687 36.7344C26.2937 36.7344 27.6909 35.3477 27.6909 33.6384C27.6909 31.9292 26.2937 30.5417 24.5687 30.5417C22.8452 30.5417 21.4479 31.9284 21.4479 33.6384C21.4479 35.3484 22.8444 36.7344 24.5687 36.7344ZM32.0874 47.9454L29.6304 41.2517C28.6464 37.8324 25.7807 37.9382 25.7807 37.9382H23.3484C23.3484 37.9382 20.4842 37.8332 19.4987 41.2517L17.0417 47.9454L32.0874 47.9454ZM24.5687 26.6334V19.3097L25.7844 18.0939V25.4139L44.1767 25.4139V2.12792L25.7844 2.12792V14.0904L24.5687 15.3054V0.910671L45.3879 0.910671V26.6327L24.5687 26.6334Z" fill="black"/>
<path id="Vector_2" d="M35.1594 7.13267C34.7364 7.11458 34.3366 6.93378 34.0436 6.62801C33.7507 6.32224 33.5871 5.91514 33.5871 5.49167C33.5871 5.0682 33.7507 4.6611 34.0436 4.35533C34.3366 4.04956 34.7364 3.86876 35.1594 3.85067C35.5947 3.85067 36.0121 4.02356 36.3198 4.33131C36.6275 4.63905 36.8004 5.05645 36.8004 5.49167C36.8004 5.92689 36.6275 6.34429 36.3198 6.65203C36.0121 6.95978 35.5947 7.13267 35.1594 7.13267ZM29.7407 13.9524C29.7407 13.9524 31.0869 9.37967 31.0892 9.37592C31.6254 7.59617 33.1269 7.64942 33.1269 7.64942L37.1889 7.64942C37.1889 7.64942 38.6927 7.59617 39.2282 9.37592L40.5744 13.9524C40.6023 14.0411 40.6122 14.1345 40.6035 14.2271C40.5949 14.3196 40.5679 14.4096 40.5241 14.4916C40.4803 14.5736 40.4206 14.6461 40.3485 14.7048C40.2764 14.7635 40.1933 14.8072 40.1041 14.8334C40.0149 14.8596 39.9214 14.8678 39.829 14.8574C39.7366 14.8471 39.6472 14.8184 39.566 14.7731C39.4848 14.7279 39.4134 14.6668 39.356 14.5937C39.2987 14.5205 39.2565 14.4366 39.2319 14.3469L37.9464 9.97067L37.9434 9.97217L37.3704 9.97067V14.9507L39.6332 22.7162C39.6751 22.8593 39.6832 23.0102 39.6566 23.1569C39.6301 23.3037 39.5698 23.4422 39.4804 23.5616C39.391 23.6809 39.275 23.7778 39.1417 23.8446C39.0084 23.9114 38.8613 23.9461 38.7122 23.9462C38.2959 23.9462 37.9119 23.6739 37.7889 23.2554L35.5539 15.5874H34.7627L32.5277 23.2554C32.4925 23.3765 32.4337 23.4895 32.3547 23.5878C32.2757 23.6862 32.1781 23.768 32.0675 23.8285C31.9568 23.8891 31.8353 23.9272 31.7099 23.9407C31.5845 23.9542 31.4577 23.9428 31.3367 23.9072C31.2156 23.8718 31.1027 23.813 31.0044 23.734C30.9061 23.655 30.8243 23.5575 30.7637 23.4469C30.7031 23.3363 30.6649 23.2148 30.6512 23.0894C30.6376 22.9641 30.6488 22.8372 30.6842 22.7162L32.9469 14.9544V9.97142L32.3739 9.97292L32.3709 9.97142L31.0839 14.3477C31.0316 14.5257 30.9107 14.6757 30.7479 14.7645C30.6672 14.8086 30.5787 14.8363 30.4873 14.8461C30.396 14.8559 30.3036 14.8476 30.2154 14.8217C30.1273 14.7958 30.0451 14.7528 29.9736 14.6951C29.902 14.6374 29.8426 14.5662 29.7986 14.4856C29.7545 14.4049 29.7268 14.3164 29.717 14.2251C29.7072 14.1337 29.7155 14.0413 29.7414 13.9532L29.7407 13.9524ZM8.57719 13.2632C9.38274 13.2454 10.1493 12.9129 10.7128 12.3369C11.2762 11.7609 11.5917 10.9872 11.5917 10.1814C11.5917 9.37567 11.2762 8.60194 10.7128 8.02594C10.1493 7.44993 9.38274 7.11744 8.57719 7.09967C8.17238 7.09937 7.7715 7.17895 7.3975 7.33384C7.02349 7.48873 6.68373 7.71588 6.39766 8.0023C6.1116 8.28871 5.88485 8.62876 5.73042 9.00294C5.57598 9.37713 5.4969 9.77812 5.49769 10.1829C5.49709 10.5875 5.57634 10.9883 5.73088 11.3622C5.88542 11.7361 6.11222 12.0759 6.39828 12.362C6.68435 12.6482 7.02406 12.8751 7.39796 13.0297C7.77185 13.1843 8.17258 13.2637 8.57719 13.2632ZM8.57719 17.8464C8.57719 17.8464 7.82944 17.9432 7.37194 17.3094C6.95794 16.7304 6.92719 14.8119 6.92419 14.4647H10.2332C10.2444 15.8454 10.0839 16.8519 9.75394 17.3589C9.42094 17.8764 8.57719 17.8472 8.57719 17.8472V17.8464Z" fill="black"/>
<path id="Vector_3" d="M22.0052 20.5637C22.1185 20.7497 22.2947 21.1277 22.2947 21.3662C22.2947 22.0862 21.7135 22.6644 20.9957 22.6644H16.7229C16.2377 22.6644 15.6002 22.4687 15.328 22.0607C14.4092 20.6964 13.438 19.2587 13.1515 18.8289L13.1515 26.9079L2.39045 26.9079V18.6227C2.39045 16.4559 4.0832 14.5052 6.0857 14.5052C6.08045 15.5222 6.21695 17.2112 6.81245 17.9507C7.4342 18.7059 8.1662 18.6399 8.1662 18.6399V21.7922C7.93555 21.8863 7.74485 22.0578 7.62685 22.2771C7.50884 22.4965 7.47089 22.7502 7.51951 22.9945C7.56812 23.2388 7.70028 23.4586 7.89328 23.6161C8.08628 23.7736 8.32809 23.859 8.5772 23.8577C8.71829 23.8578 8.85802 23.83 8.98838 23.776C9.11873 23.722 9.23715 23.6429 9.33685 23.543C9.43655 23.4432 9.51557 23.3246 9.56939 23.1942C9.6232 23.0638 9.65074 22.924 9.65045 22.7829C9.65045 22.3367 9.37895 21.9542 8.99045 21.7922V18.6257C8.99045 18.6257 9.62945 18.6782 10.2332 18.0729C11.0394 17.2329 11.0695 14.8524 11.068 14.4632H11.2637C11.9144 14.4627 12.5552 14.6231 13.129 14.9301C13.7027 15.237 14.1917 15.6811 14.5525 16.2227L17.1107 20.0829L20.992 20.0814L26.473 14.5997C26.5218 14.5504 26.5799 14.5114 26.644 14.4847C26.708 14.458 26.7767 14.4443 26.8461 14.4443C26.9154 14.4443 26.9841 14.458 27.0482 14.4847C27.1122 14.5114 27.1703 14.5504 27.2192 14.5997C27.2685 14.6486 27.3076 14.7068 27.3344 14.7709C27.3611 14.835 27.375 14.9038 27.3751 14.9732C27.3753 15.0427 27.3617 15.1115 27.3352 15.1757C27.3087 15.2399 27.2698 15.2983 27.2207 15.3474L22.0044 20.5644L22.0052 20.5637Z" fill="black"/>
</g>
<defs>
<clipPath id="clip0_216_817">
<rect width="48.75" height="48" fill="white" transform="matrix(-1 0 0 1 48.9865 0.23642)"/>
</clipPath>
</defs>
</svg>
